{"title":"An American Werewolf in Paris DVD RIP (1997)","uid":9612214,"size":1087699528,"categoryP":"video","categoryS":"movies","magnet":"?xt=urn:btih:d5a5ff006b088a8feb635defefcdeb1dce6a5c6e&amp;dn=+An+American+Werewolf+in+Paris+DVD+RIP+%281997%29+&amp;tr=udp%3A%2F%2Ftracker.openbittorrent.com%3A80&amp;tr=udp%3A%2F%2Fopen.demonii.com%3A1337&amp;tr=udp%3A%2F%2Ftracker.coppersurfer.tk%3A6969&amp;tr=udp%3A%2F%2Fexodus.desync.com%3A6969","seeders":0,"leechers":1,"uploader":"sonicx33","files":-1,"time":1392341531,"description":"Storyline\n\nThe daughter of the werewolf from AWIL is alive and living in Paris where her mother (from the first film) and stepfather are trying to overcome her lycanthropic disease. A trio of American tourists on a thrill seeking trip around Europe manage to stop her from plunging to her death from the top of the Eiffel tower and are embroiled in a horrific but often hilarious plot involving a secret society of werewolves based in the city and a drug which allows werewolves to change at any time... This time there's no need for a full moon... \n\n\n &lt;a href=&quot;\nhttp://www.imdb.com/title/tt0118604/&quot; rel=&quot;nofollow&quot; target=&quot;_NEW&quot;&gt;\nhttp://www.imdb.com/title/tt0118604/&lt;/a&gt;\n\n\nFormat                                   : MPEG-4\nFormat profile                           : Base Media / Version 2\nCodec ID                                 : mp42\nFile size                                : 1 023 MiB\nDuration                                 : 1h 38mn\nOverall bit rate mode                    : Variable\nOverall bit rate                         : 1 451 Kbps\nEncoded date                             : UTC 2014-02-13 22:38:02\nTagged date                              : UTC 2014-02-14 00:18:05\nWriting application                      : HandBrake 0.9.9 2013052900\n\nVideo\nID                                       : 1\nFormat                                   : AVC\nFormat/Info                              : Advanced Video Codec\nFormat profile                           : &lt;a class=&quot;__cf_email__&quot; href=&quot;/cdn-cgi/l/email-protection&quot; data-cfemail=&quot;91dcf0f8ffd1dda5bfa1&quot;&gt;[email&amp;#160;protected]&lt;/a&gt;&lt;script cf-hash='f9e31' type=&quot;text/javascript&quot;&gt;\n/* &lt;![CDATA[ */!function(){try{var t=&quot;currentScript&quot;in document?document.currentScript:function(){for(var t=document.getElementsByTagName(&quot;script&quot;),e=t.length;e--;)if(t[e].getAttribute(&quot;cf-hash&quot;))return t[e]}();if(t&amp;&amp;t.previousSibling){var e,r,n,i,c=t.previousSibling,a=c.getAttribute(&quot;data-cfemail&quot;);if(a){for(e=&quot;&quot;,r=parseInt(a.substr(0,2),16),n=2;a.length-n;n+=2)i=parseInt(a.substr(n,2),16)^r,e+=String.fromCharCode(i);e=document.createTextNode(e),c.parentNode.replaceChild(e,c)}}}catch(u){}}();/* ]]&gt; */&lt;/script&gt;\nFormat settings, CABAC                   : Yes\nFormat settings, ReFrames                : 5 frames\nCodec ID                                 : avc1\nCodec ID/Info                            : Advanced Video Coding\nDuration                                 : 1h 38mn\nBit rate                                 : 1 112 Kbps\nWidth                                    : 720 pixels\nHeight                                   : 576 pixels\nDisplay aspect ratio                     : 16:9\nFrame rate mode                          : Variable\nFrame rate                               : 25.000 fps\nMinimum frame rate                       : 8.333 fps\nMaximum frame rate                       : 25.000 fps\nStandard                                 : PAL\nColor space                              : YUV\nChroma subsampling                       : 4:2:0\nBit depth                                : 8 bits\nScan type                                : Progressive\nBits/(Pixel*Frame)                       : 0.107\nStream size                              : 784 MiB (77%)\nWriting library                          : x264 core 130 r2273 b3065e6\nEncoding settings                        : cabac=1 / ref=5 / deblock=1:0:0 / \nEncoded date                             : UTC 2014-02-13 22:38:02\nTagged date                              : UTC 2014-02-14 00:18:05\nColor primaries                          : BT.601 PAL\nTransfer characteristics                 : BT.709\nMatrix coefficients                      : BT.601\n\nAudio\nID                                       : 2\nFormat                                   : AAC\nFormat/Info                              : Advanced Audio Codec\nFormat profile                           : LC\nCodec ID                                 : 40\nDuration                                 : 1h 38mn\nBit rate mode                            : Variable\nBit rate                                 : 335 Kbps\nMaximum bit rate                         : 428 Kbps\nChannel(s)                               : 2 channels\nChannel positions                        : Front: L R\nSampling rate                            : 48.0 KHz\nCompression mode                         : Lossy\nStream size                              : 236 MiB (23%)\nLanguage                                 : English\nEncoded date                             : UTC 2014-02-13 22:38:02\nTagged date                              : UTC 2014-02-14 00:18:05\n\n","torrent":{"xt":"urn:btih:d5a5ff006b088a8feb635defefcdeb1dce6a5c6e","amp;dn":"+An+American+Werewolf+in+Paris+DVD+RIP+%281997%29+","amp;tr":["udp%3A%2F%2Ftracker.openbittorrent.com%3A80","udp%3A%2F%2Fopen.demonii.com%3A1337","udp%3A%2F%2Ftracker.coppersurfer.tk%3A6969","udp%3A%2F%2Fexodus.desync.com%3A6969"],"infoHash":"d5a5ff006b088a8feb635defefcdeb1dce6a5c6e","infoHashBuffer":{"type":"Buffer","data":[213,165,255,0,107,8,138,143,235,99,93,239,239,205,235,29,206,106,92,110]},"announce":[],"urlList":[]}}